<?xml version="1.0" encoding="UTF-8" standalone="no"?>
<!-- Created with Inkscape (http://www.inkscape.org/) -->

<svg
   width="409.047mm"
   height="114.80821mm"
   viewBox="0 0 409.047 114.80821"
   version="1.1"
   id="svg1"
   xml:space="preserve"
   inkscape:version="1.4.2 (f4327f4, 2025-05-13)"
   sodipodi:docname="PSCoat Logo.svg"
   xmlns:inkscape="http://www.inkscape.org/namespaces/inkscape"
   xmlns:sodipodi="http://sodipodi.sourceforge.net/DTD/sodipodi-0.dtd"
   xmlns="http://www.w3.org/2000/svg"
   xmlns:svg="http://www.w3.org/2000/svg"><sodipodi:namedview
     id="namedview1"
     pagecolor="#ffffff"
     bordercolor="#000000"
     borderopacity="0.25"
     inkscape:showpageshadow="2"
     inkscape:pageopacity="0.0"
     inkscape:pagecheckerboard="0"
     inkscape:deskcolor="#d1d1d1"
     inkscape:document-units="mm"
     inkscape:zoom="0.17215734"
     inkscape:cx="461.78688"
     inkscape:cy="-43.5648"
     inkscape:window-width="1920"
     inkscape:window-height="991"
     inkscape:window-x="-9"
     inkscape:window-y="-9"
     inkscape:window-maximized="1"
     inkscape:current-layer="layer1" /><defs
     id="defs1" /><g
     inkscape:label="Ebene 1"
     inkscape:groupmode="layer"
     id="layer1"><g
       id="g65"
       transform="translate(-33.963018,-403.02137)"><path
         style="fill:#08b0ce;fill-opacity:1"
         d="m 83.307809,449.18799 c -1.077731,-0.48977 -39.193319,-38.71225 -39.543133,-39.65403 -0.693054,-1.86586 -0.155488,-4.29566 1.208101,-5.46062 0.810393,-0.69235 3.090554,-1.04317 4.492749,-0.69124 0.45657,0.1146 6.868108,6.329 18.18879,17.62955 9.616014,9.59891 17.582428,17.41965 17.703141,17.37941 0.502511,-0.1675 25.865103,-25.7277 25.781363,-25.98223 -0.0503,-0.15288 -1.03457,-0.33796 -2.18727,-0.41131 -2.50516,-0.1594 -3.07883,-0.44692 -4.09796,-2.05392 -1.22211,-1.92707 -0.97006,-3.83573 0.7493,-5.67403 1.08595,-1.16107 2.53034,-1.32273 10.93338,-1.22368 l 7.56388,0.0892 1.14139,0.79142 c 1.86525,1.29333 1.88562,1.41886 1.79901,11.08599 l -0.0765,8.5376 -0.72305,0.94752 c -1.54849,2.02919 -4.49349,2.29935 -6.48479,0.59488 -1.1844,-1.0138 -1.6557,-2.33293 -1.6557,-4.63413 0,-0.78081 -0.1116,-1.32253 -0.26201,-1.2719 -0.14411,0.0485 -6.96044,6.77735 -15.1474,14.95298 -8.18696,8.17563 -15.220557,14.99196 -15.630212,15.1474 -1.014587,0.38496 -2.791477,0.33818 -3.753089,-0.0988 z"
         id="path65" /><path
         style="fill:#21cc80;fill-opacity:1"
         d="m 36.993574,496.22101 c -1.430773,-0.28437 -3.030556,-2.60725 -3.030556,-4.40037 0,-1.62458 0.589824,-2.50267 3.904892,-5.81333 1.708611,-1.70634 3.253001,-3.2508 3.431978,-3.43214 0.178976,-0.18134 5.501572,-5.49718 11.827989,-11.81297 9.163337,-9.14795 11.453889,-11.56929 11.263163,-11.90625 -0.131678,-0.23265 -6.747084,-6.9119 -14.700902,-14.84278 -7.953819,-7.93089 -14.746255,-14.86391 -15.094304,-15.40673 -1.039932,-1.62185 -0.75582,-3.89126 0.6901,-5.51232 1.203546,-1.34933 3.715034,-1.7004 5.291666,-0.73971 0.509323,0.31035 2.95029,2.57655 5.42437,5.036 2.47408,2.45945 4.676737,4.58451 4.894792,4.72236 0.218055,0.13784 0.326881,0.25245 0.241836,0.25468 -0.08505,0.002 5.234992,5.39163 11.822304,11.97644 6.587312,6.58482 12.163535,12.36339 12.391606,12.84127 0.564591,1.18299 0.520938,2.74876 -0.11017,3.95163 -0.677274,1.29085 -34.022873,34.60709 -35.012691,34.98186 -0.725594,0.27473 -2.143202,0.31957 -3.236073,0.10236 z"
         id="path55" /><path
         style="fill:#08b0ce;fill-opacity:1"
         d="m 45.892992,514.63301 c -1.467647,-0.5868 -2.46731,-2.27745 -2.440771,-4.12789 0.026,-1.81306 0.608792,-2.70486 3.857122,-5.90233 1.700113,-1.67349 4.42309,-4.39464 6.05106,-6.047 1.62797,-1.65236 3.307898,-3.31923 3.733174,-3.70416 0.425275,-0.38493 1.556369,-1.52028 2.513541,-2.523 0.957173,-1.00271 1.956521,-2.01474 2.220772,-2.24895 0.264252,-0.23422 1.454877,-1.41961 2.645834,-2.63422 1.190956,-1.2146 2.567887,-2.58382 3.059847,-3.04271 0.491959,-0.45888 1.623053,-1.59375 2.513541,-2.52194 0.890489,-0.92818 1.838126,-1.88068 2.105861,-2.11666 0.267734,-0.23599 1.458359,-1.41857 2.645833,-2.62798 1.187474,-1.2094 2.559507,-2.57862 3.048962,-3.04271 0.489455,-0.46408 1.739612,-1.72179 2.778125,-2.79491 1.038514,-1.07312 2.271335,-2.11492 2.739604,-2.31511 1.049735,-0.44877 2.714965,-0.46939 3.700216,-0.0458 0.407029,0.17499 7.453643,7.02108 15.659147,15.21355 8.20549,8.19246 15.02182,14.89538 15.14739,14.89538 0.12557,0 0.24825,-0.38695 0.27263,-0.85989 0.0244,-0.47295 0.064,-1.15756 0.088,-1.52136 0.024,-0.3638 0.0636,-0.96592 0.088,-1.33805 0.0986,-1.50574 2.47481,-3.31762 4.40994,-3.36265 1.07769,-0.0251 3.02258,0.96384 3.6882,1.87535 0.51878,0.71043 0.54908,1.15168 0.62677,9.12812 0.0863,8.8584 -0.0165,9.85974 -1.11314,10.84932 -1.10868,1.00041 -2.09819,1.10416 -10.53049,1.10416 -9.28679,0 -9.23939,0.009 -10.54579,-2.05077 -0.92315,-1.45564 -1.01093,-2.80907 -0.27525,-4.24362 1.02779,-2.00416 2.34862,-2.70144 5.11723,-2.70144 0.8377,0 1.5231,-0.0851 1.5231,-0.18907 0,-0.21689 -25.720244,-26.00468 -25.93657,-26.00468 -0.07829,0 -7.877475,7.75015 -17.331531,17.22255 -9.845668,9.86477 -17.552926,17.38157 -18.040592,17.59479 -0.964199,0.42156 -3.065256,0.46531 -4.019709,0.0837 z"
         id="path54" /><path
         style="fill:#000000"
         d="m 245.96042,517.61826 -1.12448,-0.0814 v -6.2025 -6.20249 h 2.75312 c 2.34548,0 2.91964,0.0881 3.87774,0.59531 1.46904,0.77763 2.09841,1.8291 2.09841,3.50573 0,1.47306 -0.62459,2.74761 -1.68788,3.4443 -0.38228,0.25048 -1.48934,0.49331 -2.64871,0.581 l -1.99192,0.15065 -0.0759,2.14536 -0.0759,2.14536 z m 4.49901,-6.99625 c 0.73812,-0.56383 0.82127,-1.59411 0.1931,-2.3927 -0.48873,-0.62132 -0.75349,-0.71615 -1.99934,-0.71615 h -1.436 v 1.71979 1.71979 h 1.40464 c 0.77255,0 1.59947,-0.14883 1.8376,-0.33073 z m 9.98693,6.9199 c -1.68233,-0.48817 -3.12551,-2.01027 -3.8361,-4.04588 -0.59232,-1.6968 -0.61143,-1.9155 -0.27748,-3.175 0.55388,-2.08899 0.81775,-2.61051 1.77284,-3.5039 1.39775,-1.30747 2.75776,-1.82195 4.72199,-1.7863 4.35677,0.079 7.08903,4.02888 5.85701,8.46706 -0.38038,1.37028 -1.07893,2.26375 -2.57423,3.29255 -0.95695,0.6584 -1.50559,0.82807 -2.9565,0.9143 -0.97982,0.0582 -2.19821,-0.015 -2.70753,-0.16283 z m 3.4656,-2.39489 c 1.32525,-0.39706 1.98152,-1.13086 2.39503,-2.67801 0.44435,-1.66254 -0.0449,-3.13702 -1.40332,-4.22959 -1.24774,-1.00353 -3.20837,-1.07864 -4.43736,-0.17001 -1.93119,1.42779 -2.19704,4.73086 -0.50746,6.30494 1.03707,0.96617 2.41095,1.23471 3.95311,0.77267 z m 18.22678,1.37094 c -0.16516,-0.6559 -0.39617,-1.3132 -0.51336,-1.46066 -0.19987,-0.2515 -0.62706,-1.6396 -1.33412,-4.335 -0.27452,-1.0465 -0.33492,-1.10941 -0.63507,-0.66146 -0.18244,0.27226 -0.55143,1.32846 -0.81999,2.34711 -0.26855,1.01865 -0.70352,2.32833 -0.96658,2.91042 -0.26307,0.58208 -0.48092,1.32622 -0.48412,1.65364 -0.005,0.52339 -0.14167,0.59507 -1.13029,0.5933 l -1.12448,-0.002 -0.74107,-2.1808 c -0.4076,-1.19944 -0.92457,-2.83564 -1.14884,-3.63601 -0.22426,-0.80036 -0.50254,-1.57427 -0.6184,-1.71979 -0.17198,-0.21603 -0.7444,-2.05988 -1.35529,-4.36562 -0.0831,-0.31361 0.17047,-0.39688 1.20847,-0.39688 h 1.31361 l 0.62673,2.11667 c 0.3447,1.16416 0.88902,3.04246 1.2096,4.17399 l 0.58286,2.05732 0.30167,-0.99899 c 0.52996,-1.75505 1.69288,-5.19543 2.14839,-6.35581 0.35847,-0.91318 0.56769,-1.12367 1.11771,-1.12448 0.7506,-10e-4 1.13497,0.68333 2.00537,3.57088 0.26319,0.87313 0.55409,1.64704 0.64644,1.7198 0.0923,0.0728 0.32494,0.75142 0.51686,1.50814 0.33108,1.3054 0.78485,1.6656 0.78485,0.62301 0,-0.2659 0.31581,-1.41973 0.70179,-2.56407 0.38599,-1.14435 0.83464,-2.67594 0.99701,-3.40354 0.29473,-1.32071 0.29715,-1.32306 1.45083,-1.40603 0.63558,-0.0457 1.25404,0.0153 1.37436,0.13565 0.12033,0.12032 -0.68739,2.9151 -1.79491,6.21062 l -2.01369,5.99186 -1.00303,0.0957 c -0.99068,0.0945 -1.00672,0.081 -1.30331,-1.09691 z m 27.07282,-0.48774 c -0.55435,-0.91816 -1.16324,-1.95996 -1.35308,-2.3151 -0.24604,-0.46028 -0.56896,-0.64571 -1.12448,-0.64571 h -0.77931 v 2.24896 2.24896 h -1.19062 -1.19063 v -6.21771 -6.21771 h 2.86072 c 3.20369,0 4.89276,0.53988 5.33594,1.70553 0.13055,0.34337 0.36377,0.70244 0.51827,0.79792 0.1545,0.0955 0.2809,0.69556 0.2809,1.3335 0,1.40209 -0.81613,2.90338 -1.87641,3.45167 l -0.75441,0.39012 0.75062,1.12157 c 0.41283,0.61686 0.94441,1.41922 1.18129,1.78302 0.23687,0.3638 0.61703,0.91793 0.8448,1.23139 0.40876,0.56256 0.39529,0.57112 -1.04078,0.66146 l -1.45491,0.0915 z m 0.077,-5.54455 c 0.16012,-0.10691 0.43388,-0.46542 0.60836,-0.79668 0.26741,-0.50769 0.22924,-0.72587 -0.24299,-1.38906 -0.51358,-0.72125 -0.69093,-0.78677 -2.12972,-0.78677 h -1.56948 v 1.5875 1.5875 l 1.52135,-0.004 c 0.83675,-0.002 1.65236,-0.0915 1.81248,-0.19844 z m 14.28158,6.95327 c -0.57075,-0.20335 -1.39182,-0.72383 -1.82461,-1.15662 l -0.78688,-0.78688 0.63398,-0.8015 c 0.6267,-0.7923 1.29543,-1.08258 1.29543,-0.56231 0,0.4639 1.68098,1.31701 2.59709,1.31804 1.19784,10e-4 1.90083,-0.42689 1.90083,-1.15794 0,-0.59794 -0.72554,-1.4869 -1.21356,-1.4869 -0.39821,0 -2.83962,-1.34181 -3.44347,-1.89254 -0.3058,-0.27889 -0.70263,-0.95137 -0.88184,-1.49439 -0.29248,-0.88621 -0.26264,-1.10635 0.29141,-2.14972 0.33949,-0.63932 0.85538,-1.29222 1.14642,-1.4509 0.29104,-0.15867 0.60952,-0.40012 0.70773,-0.53654 0.0982,-0.13643 0.93165,-0.2472 1.85209,-0.24616 1.36026,0.002 1.884,0.13526 2.79799,0.71439 0.61847,0.39187 1.12448,0.83488 1.12448,0.98447 0,0.14959 -0.25127,0.61184 -0.55837,1.02722 l -0.55838,0.75524 -0.93375,-0.63366 c -1.56608,-1.06277 -3.39281,-0.66086 -3.20015,0.70408 0.071,0.50328 0.50477,0.85193 1.95645,1.57267 2.40987,1.19648 2.84166,1.53132 3.37901,2.62034 0.59873,1.21341 0.56125,1.76392 -0.20968,3.07941 -1.05917,1.80734 -3.58783,2.46539 -6.07222,1.5802 z m 48.09416,0.18163 c -1.2272,-0.0712 -1.39438,-0.15648 -1.68574,-0.85989 -0.1779,-0.42947 -0.3983,-0.78114 -0.48978,-0.78148 -0.0915,-3.5e-4 -0.50836,-0.65519 -0.92638,-1.45521 -0.66235,-1.26762 -0.86139,-1.45458 -1.54851,-1.45458 h -0.78846 l 0.0933,2.249 0.0933,2.24899 -1.25677,-4e-5 -1.25677,-3e-5 v -6.21771 -6.21771 h 2.91568 c 2.60951,0 3.01971,0.0657 3.90648,0.62547 1.28418,0.81067 1.65096,1.27273 1.90524,2.40014 0.35681,1.58206 -0.14197,3.08628 -1.31181,3.95615 l -1.02754,0.76404 0.46844,0.69116 c 1.89525,2.79638 2.61979,3.99172 2.45855,4.05611 -0.1028,0.0411 -0.79995,0.0391 -1.54922,-0.004 z m -1.83159,-7.34818 c 0.54189,-0.54189 0.53098,-1.66422 -0.0221,-2.27538 -0.32907,-0.36362 -0.82218,-0.48385 -1.98438,-0.48385 h -1.54649 v 1.5875 1.5875 h 1.5686 c 1.07323,0 1.69991,-0.13131 1.98438,-0.41577 z m 26.76442,7.23101 c -1.21474,-0.32115 -3.18339,-2.16663 -3.74497,-3.51068 -0.20827,-0.49847 -0.37345,-1.59475 -0.36706,-2.43617 0.021,-2.76353 0.98429,-4.45653 3.29567,-5.79206 1.13041,-0.65316 1.59243,-0.76134 3.175,-0.74346 1.90462,0.0215 3.11196,0.49482 4.56407,1.78916 0.77557,0.6913 0.75095,0.97773 -0.15216,1.77019 -0.71345,0.62604 -0.76963,0.63485 -1.23436,0.19364 -0.26778,-0.25423 -1.00275,-0.71197 -1.63325,-1.01719 -1.57749,-0.76365 -2.95547,-0.51605 -4.31253,0.77488 -1.74412,1.65915 -1.69881,4.12398 0.10873,5.91405 1.35966,1.34652 4.16976,1.22423 5.75075,-0.25027 l 0.71,-0.66218 0.67906,0.73273 c 0.86529,0.93365 0.85532,1.32419 -0.0485,1.90269 -0.40018,0.25613 -0.87469,0.60583 -1.05448,0.7771 -0.40174,0.38273 -2.70417,0.89584 -3.85333,0.85873 -0.46578,-0.015 -1.31295,-0.15056 -1.8826,-0.30116 z m 14.00323,-0.095 c -1.55074,-0.56756 -2.90384,-2.02787 -3.56881,-3.8516 -0.54093,-1.48355 -0.64606,-2.94077 -0.25468,-3.53005 0.0967,-0.14552 0.24899,-0.57225 0.33853,-0.94828 0.26151,-1.09829 1.70209,-2.70503 3.03862,-3.38911 1.59454,-0.81614 3.96024,-0.9007 5.4705,-0.19555 1.46273,0.68295 2.97814,2.19953 3.32326,3.32584 0.15885,0.51838 0.35445,1.12111 0.43466,1.33939 0.24266,0.6603 0.18716,1.64503 -0.17769,3.15274 -0.82376,3.40404 -5.0278,5.40562 -8.60439,4.09662 z m 3.92054,-2.31859 c 0.47506,-0.19849 1.18561,-0.74341 1.579,-1.21092 0.58661,-0.69715 0.71525,-1.11047 0.71525,-2.29808 0,-1.70577 -0.42689,-2.64487 -1.59229,-3.50282 -2.04696,-1.50694 -5.04245,-0.38069 -5.76183,2.16633 -0.94019,3.32883 1.98513,6.1302 5.05987,4.84549 z m 6.79217,2.3892 c 0,-0.22527 0.10805,-0.47635 0.24011,-0.55797 0.13206,-0.0816 0.44675,-0.83279 0.69931,-1.66926 0.25255,-0.83647 0.60162,-1.75899 0.7757,-2.05003 0.17408,-0.29104 0.5682,-1.24354 0.87581,-2.11667 2.10718,-5.98093 2.02066,-5.81355 3.05097,-5.90214 0.88624,-0.0762 0.97763,-0.01 1.45499,1.05833 0.28014,0.62681 0.65909,1.6159 0.84209,2.19798 0.18301,0.58208 0.45969,1.29646 0.61485,1.5875 0.49223,0.92331 2.80879,7.46689 2.68666,7.58902 -0.0499,0.0499 -0.62394,0.0483 -1.2757,-0.004 -1.15922,-0.0922 -1.19563,-0.12346 -1.67231,-1.43583 l -0.48728,-1.34157 -1.91823,0.0225 c -1.05502,0.0124 -2.02541,0.0319 -2.15642,0.0434 -0.131,0.0115 -0.381,0.6162 -0.55555,1.34381 -0.31214,1.30112 -0.33401,1.32292 -1.32767,1.32292 -0.55567,0 -1.19864,0.0723 -1.42882,0.16059 -0.27055,0.10383 -0.41851,0.0158 -0.41851,-0.24896 z m 6.86476,-5.66632 c -0.14623,-0.40018 -0.34136,-0.9062 -0.43362,-1.12448 -0.0923,-0.21828 -0.18859,-0.45641 -0.21408,-0.52917 -0.4891,-1.39614 -0.54412,-1.38655 -1.03789,0.18094 -0.26661,0.84637 -0.5417,1.68768 -0.61131,1.86958 -0.091,0.2378 0.25126,0.33073 1.21811,0.33073 h 1.34468 z m 8.74549,0.79375 1.6e-4,-5.09323 h -1.78784 -1.78785 l 0.0947,-1.19063 0.0947,-1.19062 h 4.73586 4.73586 l 5.5e-4,1.25677 5.6e-4,1.25677 -1.72035,-0.0887 -1.72034,-0.0887 v 5.02412 5.02412 l -1.32309,0.0917 -1.32308,0.0917 z m -145.4594,-1.19063 0.071,-6.15156 4.16719,-0.0729 4.16718,-0.0729 v 1.19735 1.19734 h -3.01072 -3.01073 l 0.0342,1.38906 0.0342,1.38906 1.95067,-0.0895 c 1.07286,-0.0492 2.32302,-0.0197 2.77812,0.0656 0.75897,0.14223 0.82519,0.23724 0.80007,1.14784 l -0.0274,0.99277 -2.81688,0.0751 -2.81688,0.0751 v 1.31397 1.31397 h 3.04271 3.0427 v 1.19062 1.19063 h -4.23821 -4.23821 z m 42.13977,-6e-5 v -6.1515 l 0.79375,-0.0723 c 0.73161,-0.0666 0.92839,0.12534 2.51354,2.45184 0.94589,1.38826 2.06236,3.00495 2.48106,3.59264 l 0.76126,1.06854 0.56166,-0.85074 c 0.3089,-0.46791 0.91883,-1.40776 1.3554,-2.08857 2.29198,-3.57427 2.88132,-4.24806 3.65029,-4.17334 l 0.73988,0.0719 -5.2e-4,6.08542 -5.3e-4,6.08541 -1.26852,0.078 -1.26852,0.078 0.0618,-3.31911 c 0.034,-1.82551 0.0127,-3.31911 -0.0474,-3.31911 -0.0601,0 -0.47487,0.53578 -0.92175,1.19063 -0.44687,0.65484 -1.17811,1.7264 -1.62499,2.38125 -1.00939,1.47916 -1.79127,1.58447 -2.45544,0.33073 -0.67831,-1.28043 -2.71008,-4.18624 -2.83829,-4.05927 -0.0613,0.0607 -0.052,1.60934 0.0208,3.44138 l 0.13229,3.33098 -1.32291,-6.2e-4 -1.32292,-6.3e-4 z m 16.00729,5.8765 c 0,-0.15132 0.22486,-0.71686 0.49969,-1.25677 0.27483,-0.5399 0.65502,-1.51743 0.84487,-2.17227 0.18985,-0.65484 0.48728,-1.42875 0.66096,-1.71979 0.17368,-0.29104 0.52362,-1.18401 0.77764,-1.98438 0.25402,-0.80036 0.55181,-1.57427 0.66174,-1.71979 0.10994,-0.14552 0.41359,-0.94919 0.67477,-1.78594 0.46457,-1.48831 0.49591,-1.52135 1.44283,-1.52135 0.94976,0 0.98105,0.0336 1.66507,1.78594 1.45686,3.73229 2.56201,6.67498 2.56201,6.82184 0,0.0839 0.22943,0.65611 0.50983,1.27164 0.28041,0.61553 0.59097,1.44244 0.69014,1.83757 0.17853,0.71129 0.16689,0.71843 -1.17128,0.71843 -1.01682,0 -1.3516,-0.097 -1.3516,-0.39153 0,-0.21533 -0.17951,-0.84041 -0.39891,-1.38906 -0.39487,-0.98743 -0.41297,-0.99703 -1.78594,-0.9473 -0.76287,0.0276 -1.70249,0.0574 -2.08806,0.0662 -0.59654,0.0135 -0.77194,0.21309 -1.17675,1.33882 l -0.47571,1.32292 h -1.27065 c -0.70316,0 -1.27065,-0.12288 -1.27065,-0.27513 z m 6.79028,-5.21498 c -0.35657,-1.09619 -1.21807,-3.36221 -1.23222,-3.24114 -0.009,0.0728 -0.28935,0.93596 -0.6241,1.91822 l -0.60862,1.78594 h 1.30777 c 1.12649,0 1.2869,-0.0642 1.15717,-0.46302 z m 22.32686,0.52917 0.0336,-4.96094 -1.71639,-0.0776 -1.71638,-0.0776 -0.10115,-1.0606 c -0.0556,-0.58333 -0.0478,-1.11394 0.0174,-1.17915 0.0652,-0.0652 2.24183,-0.11854 4.83695,-0.11854 h 4.71841 v 1.19062 1.19063 h -1.7198 -1.71979 v 5.02708 5.02709 h -1.33323 -1.33324 z m -167.7953,-20.44832 c -1.25697,-0.13165 -2.74525,-0.3552 -3.30729,-0.49678 -2.16392,-0.54511 -5.27854,-1.52924 -5.78438,-1.8277 -0.29104,-0.17172 -1.06495,-0.55438 -1.71979,-0.85036 -1.39244,-0.62935 -1.7542,-0.83889 -3.80087,-2.20157 -1.54772,-1.03048 -5.83444,-4.96949 -6.26417,-5.75607 -0.17526,-0.32079 0.26238,-1.07265 1.77106,-3.04271 1.10211,-1.43915 2.49259,-3.27148 3.08997,-4.07185 0.59738,-0.80036 1.40358,-1.83062 1.79156,-2.28946 0.38798,-0.45884 0.7524,-0.9752 0.80982,-1.14746 0.0574,-0.17227 0.9344,0.50183 1.94883,1.498 3.22091,3.16289 6.90697,5.24807 10.97255,6.20707 3.63342,0.85707 5.38419,0.91011 7.85086,0.23783 2.60991,-0.71131 3.80545,-1.4939 4.68428,-3.0663 0.68772,-1.23047 1.00063,-3.82093 0.46154,-3.82093 -0.12787,0 -0.38132,-0.35932 -0.56323,-0.7985 -0.71401,-1.72375 -4.31689,-3.72 -9.78762,-5.42303 -0.80037,-0.24915 -1.69333,-0.59511 -1.98438,-0.76879 -0.29104,-0.17367 -1.06494,-0.47062 -1.71979,-0.65987 -1.40643,-0.40646 -6.69769,-2.98741 -7.81624,-3.81258 -0.42927,-0.31667 -1.73365,-1.52827 -2.89863,-2.69244 -2.51233,-2.51058 -3.87596,-4.90769 -4.36484,-7.67291 -0.18009,-1.01865 -0.41559,-2.14974 -0.52333,-2.51354 -0.50038,-1.68954 0.32569,-7.02922 1.46686,-9.48181 2.54742,-5.47486 6.84867,-8.96511 13.47472,-10.93408 2.29881,-0.6831 3.20109,-0.80432 6.87917,-0.9242 2.33996,-0.0763 4.88418,-0.0204 5.68854,0.12491 2.54597,0.45993 6.64652,1.56211 6.9534,1.86899 0.1629,0.1629 0.48402,0.29619 0.7136,0.29619 1.03748,0 6.3013,3.12969 8.59661,5.11125 1.2285,1.06058 1.275,0.87499 -1.11303,4.44196 -0.83849,1.25244 -2.11985,3.2003 -2.84745,4.32858 -0.72761,1.12827 -1.47175,2.2084 -1.65365,2.40028 -0.1819,0.19188 -0.33073,0.48656 -0.33073,0.65485 0,0.16828 -0.53871,-0.16823 -1.19714,-0.7478 -0.65842,-0.57957 -1.60586,-1.24772 -2.10542,-1.48477 -0.49956,-0.23706 -0.97514,-0.53918 -1.05685,-0.67139 -0.0817,-0.13221 -0.83091,-0.48926 -1.66489,-0.79345 -0.83398,-0.30419 -1.75445,-0.66347 -2.04549,-0.7984 -1.15365,-0.53485 -2.77018,-0.82624 -5.42396,-0.97772 -4.79966,-0.27396 -7.10722,0.59963 -8.34635,3.15974 -0.69754,1.44117 -0.70677,2.95486 -0.0235,3.84935 1.33108,1.7425 4.40926,3.74901 6.78232,4.42104 0.3638,0.10302 1.25677,0.45378 1.98438,0.77945 0.7276,0.32567 1.79916,0.74394 2.38125,0.92948 0.58208,0.18554 1.17739,0.42537 1.32291,0.53296 0.14553,0.10759 0.74084,0.34732 1.32292,0.53272 2.5871,0.82404 6.98327,3.02694 9.30308,4.66172 2.96528,2.08965 4.88106,4.67039 6.11141,8.23267 0.6303,1.82495 0.7093,2.44754 0.71674,5.64849 0.005,2.26941 -0.101,3.73454 -0.28788,3.96875 -0.16292,0.2042 -0.37894,0.84753 -0.48003,1.42961 -0.20072,1.15576 -1.66226,4.22904 -2.60142,5.47018 -2.60487,3.44247 -7.32043,6.68083 -11.1744,7.67391 -0.7276,0.18748 -1.38245,0.4189 -1.45521,0.51425 -0.49706,0.6514 -8.93878,1.14999 -12.73645,0.75224 z m 101.50416,-10e-4 c -3.54102,-0.55319 -8.04035,-2.41492 -10.84969,-4.48938 -1.67363,-1.23583 -5.28279,-5.05714 -5.96684,-6.31758 -0.28557,-0.52619 -0.63319,-1.1353 -0.7725,-1.35358 -0.79996,-1.2535 -1.96145,-4.32829 -2.29082,-6.06441 -0.20924,-1.10296 -0.50564,-2.42612 -0.65866,-2.94035 -0.42171,-1.41722 -0.12985,-6.89487 0.50946,-9.56149 1.58129,-6.59572 5.54908,-11.93056 11.54568,-15.52361 1.00946,-0.60485 1.93873,-1.09972 2.06504,-1.09972 0.12631,0 0.73281,-0.22922 1.34778,-0.50937 1.00537,-0.458 2.15495,-0.71916 7.07085,-1.60638 2.16247,-0.39028 3.16886,-0.33575 7.35468,0.39848 4.69497,0.82354 7.65503,2.06311 11.0174,4.61368 5.36295,4.06814 8.09617,8.97766 9.4349,16.94734 0.57834,3.44296 -0.41319,9.91027 -2.06879,13.49374 -1.58827,3.43775 -5.01922,7.6038 -8.19616,9.95223 -1.02458,0.75739 -4.21794,2.33668 -5.51941,2.72966 -0.58208,0.17576 -1.29646,0.4282 -1.5875,0.56098 -1.74351,0.79543 -9.28351,1.26217 -12.43542,0.76976 z m 8.0917,-10.88487 c 2.34173,-0.62127 3.89855,-1.504 5.77399,-3.27392 3.28141,-3.09677 4.86265,-7.60584 4.26675,-12.16706 -0.36669,-2.80672 -0.59717,-3.54766 -1.70959,-5.4958 -1.61243,-2.82378 -3.73906,-4.72133 -6.78071,-6.05031 -1.85336,-0.80977 -2.14825,-0.85983 -5.01193,-0.85077 -2.86289,0.009 -3.1678,0.063 -5.15937,0.9134 -1.66032,0.70894 -2.5445,1.31229 -4.10105,2.79851 -2.29313,2.18953 -3.49766,4.27941 -4.09654,7.10757 -0.50264,2.37371 -0.50057,3.89465 0.009,6.4273 1.58289,7.87113 9.13255,12.62785 16.8097,10.59108 z m 46.54476,10.99295 c -2.60723,-0.37338 -4.40483,-0.71807 -4.63021,-0.88785 -0.14552,-0.10962 -0.74083,-0.34669 -1.32291,-0.52681 -3.38523,-1.04752 -7.9198,-4.51342 -10.15088,-7.7586 -2.35682,-3.42806 -4.0274,-7.45527 -4.52182,-10.90057 -0.34008,-2.3698 -0.34175,-7.41201 -0.003,-9.75371 0.44892,-3.10536 2.15797,-7.31354 4.15234,-10.22428 1.95967,-2.86007 5.95835,-6.11859 9.24372,-7.53269 3.13754,-1.35047 5.46783,-1.795 9.48195,-1.80881 6.04883,-0.0208 9.98974,1.49747 14.2526,5.49098 0.70841,0.66365 1.34402,1.20664 1.41247,1.20664 0.0684,0 0.0842,-1.30984 0.0349,-2.91075 l -0.0895,-2.91074 5.49152,3.3e-4 5.49151,3.2e-4 -0.0676,23.69198 -0.0676,23.69197 -5.40656,-10e-6 -5.40657,-1e-5 0.0704,-2.83318 0.0704,-2.83318 -1.77588,1.62727 c -4.28734,3.92857 -10.69894,5.96797 -16.25913,5.1717 z m 8.42904,-11.07561 c 4.16295,-1.37988 6.55899,-3.64773 8.66827,-8.20447 0.69438,-1.50009 0.73544,-1.79874 0.7457,-5.42396 0.0107,-3.79429 10e-4,-3.85827 -0.878,-5.82083 -2.41606,-5.39379 -7.03687,-8.46667 -12.73168,-8.46667 -3.34028,0 -6.04683,0.92865 -8.64945,2.96773 -2.8156,2.20594 -4.73608,6.00983 -5.0145,9.93221 -0.15894,2.23911 0.20651,5.65177 0.67222,6.27742 0.11034,0.14823 0.40633,0.82661 0.65776,1.5075 0.51686,1.39971 1.94737,3.38022 3.30342,4.57352 3.49084,3.07187 8.77385,4.13339 13.22626,2.65755 z m 46.472,11.08989 c -7.81306,-1.08027 -12.19846,-5.6153 -13.2525,-13.7047 -0.29581,-2.27022 -0.36846,-5.51698 -0.3132,-13.99631 l 0.072,-11.0404 -4.03489,9e-5 -4.0349,9e-5 v -4.8948 -4.89479 h 4.10104 4.10105 v -8.33437 -8.33438 h 5.68854 5.68854 v 8.33438 8.33437 h 7.79391 7.79391 l 0.0774,4.8951 0.0774,4.89509 -7.87136,-3e-4 -7.87135,-3e-4 0.004,11.04635 c 0.005,12.08279 0.11712,13.24268 1.45595,14.99797 1.17206,1.53665 2.95791,2.26609 5.54798,2.26609 1.18059,0 2.25963,-0.10151 2.39788,-0.22558 0.13824,-0.12406 0.84666,-0.37812 1.57427,-0.56458 0.7276,-0.18645 1.82037,-0.62072 2.42836,-0.96504 1.43541,-0.81291 1.58244,-0.79315 1.77601,0.23867 0.0892,0.4756 0.38262,1.27927 0.65198,1.78594 0.26937,0.50667 0.64488,1.39588 0.83446,1.97603 0.18958,0.58015 0.62265,1.65171 0.96237,2.38125 0.94659,2.03272 0.89717,2.13885 -1.54596,3.32032 -1.19285,0.57685 -2.33571,1.04882 -2.5397,1.04882 -0.20399,0 -0.74606,0.16957 -1.20462,0.37682 -0.45855,0.20726 -1.46347,0.50465 -2.23314,0.66089 -1.53371,0.31132 -6.86284,0.57188 -8.1256,0.39728 z M 264.15052,491.8874 c -0.80036,-0.13706 -1.69333,-0.35976 -1.98437,-0.49491 -0.29104,-0.13514 -1.15735,-0.44341 -1.92512,-0.68503 -3.23071,-1.01674 -6.52049,-3.17041 -9.24156,-6.05004 -2.01647,-2.13397 -3.90737,-5.12004 -4.59538,-7.25692 -0.17281,-0.53673 -0.4071,-1.09494 -0.52064,-1.24046 -0.56733,-0.72708 -1.11301,-4.72455 -1.13771,-8.33438 -0.0282,-4.11484 0.36839,-7.11514 1.17829,-8.91517 0.27467,-0.61048 0.49941,-1.25388 0.49941,-1.42978 0,-0.40951 1.68861,-3.46064 2.75316,-4.97463 1.21035,-1.72135 3.74451,-4.11792 5.8458,-5.5284 1.01864,-0.68376 1.91161,-1.25416 1.98437,-1.26754 0.11824,-0.0217 0.69131,-0.27334 3.59215,-1.57702 1.02713,-0.4616 4.83326,-1.13135 7.6674,-1.3492 3.01303,-0.2316 10.0137,0.70477 11.09775,1.48437 0.14552,0.10466 0.80036,0.39652 1.4552,0.64859 1.99865,0.76934 4.85857,2.69918 6.69525,4.51788 1.67979,1.66334 4.41725,5.45619 4.41725,6.12025 0,0.31394 -1.81834,1.36841 -6.851,3.97295 -1.73608,0.89846 -2.521,1.18491 -2.60354,0.95011 -0.065,-0.18488 -0.70517,-1.03866 -1.42263,-1.89729 -1.4714,-1.76094 -3.4173,-3.25688 -5.07208,-3.89926 -0.61401,-0.23835 -1.24157,-0.52855 -1.3946,-0.64489 -0.15302,-0.11634 -1.14867,-0.35528 -2.21254,-0.53097 -2.49227,-0.41159 -5.93167,0.004 -7.90437,0.95609 -0.75692,0.36515 -1.49021,0.66392 -1.62953,0.66392 -0.13932,0 -1.19717,0.92273 -2.35078,2.05052 -3.44744,3.37025 -4.46679,6.12388 -4.2171,11.39181 0.15206,3.20818 0.63039,4.65632 2.43159,7.36162 1.94367,2.91929 4.88704,4.75782 8.90879,5.56476 2.2477,0.45098 2.3018,0.44926 4.89479,-0.15613 2.63106,-0.61428 4.62525,-1.53661 6.58418,-3.04526 1.42379,-1.09652 1.48529,-1.16017 2.50818,-2.59597 0.49244,-0.69123 0.93944,-1.25677 0.99333,-1.25677 0.19437,0 2.80117,1.47391 6.03002,3.40944 1.01865,0.61062 2.17951,1.25049 2.57969,1.42194 0.83273,0.35675 0.88538,0.5293 0.33073,1.08395 -0.21828,0.21828 -0.39688,0.47322 -0.39688,0.56654 0,0.42241 -1.76663,2.66843 -3.25667,4.14037 -2.88382,2.8488 -5.56126,4.44938 -9.97249,5.96156 -2.73013,0.9359 -2.86041,0.95373 -7.54063,1.03245 -2.61937,0.044 -5.41734,-0.032 -6.21771,-0.1691 z m -122.58205,-0.68198 c -0.10154,-0.10154 -0.18462,-14.63087 -0.18462,-32.28739 v -32.10278 l 13.95678,0.002 c 11.01682,10e-4 14.5082,0.0847 16.57459,0.39613 1.43981,0.21702 2.7495,0.49312 2.91042,0.61358 0.16093,0.12045 0.82837,0.3724 1.48322,0.5599 1.80347,0.51637 4.72461,2.21683 6.62933,3.85908 3.14304,2.70993 5.62009,7.31937 6.32378,11.76767 0.35453,2.24118 0.35168,7.15375 -0.005,9.14567 -0.28972,1.61659 -1.76301,5.96493 -2.1007,6.20016 -0.10446,0.0728 -0.37726,0.48948 -0.60622,0.92604 -0.61935,1.18093 -3.50526,4.25693 -4.88354,5.20521 -2.76848,1.90477 -4.90018,2.77224 -9.72296,3.95667 -0.58208,0.14296 -4.39208,0.32767 -8.46667,0.41047 l -7.40833,0.15054 0.0766,10.55053 0.0766,10.55053 h -6.868 c -3.7774,0 -7.03279,0.0632 -7.23419,0.14052 -0.20141,0.0773 -0.44927,0.0575 -0.55081,-0.0441 z m 28.78726,-35.40711 c 1.975,-1.15816 2.75171,-1.96 3.59897,-3.71535 0.64343,-1.33308 0.76627,-1.91734 0.76645,-3.64557 1.7e-4,-1.74786 -0.11605,-2.28836 -0.7711,-3.58601 -1.02769,-2.03585 -1.9532,-2.96973 -3.8589,-3.89381 l -1.5875,-0.76979 -6.21771,-0.0953 -6.21771,-0.0953 v 8.37417 8.37417 l 6.48229,-0.0857 6.48229,-0.0857 z"
         id="path1"
         sodipodi:nodetypes="ccccsssssccccssscccsscssssssscsssssssssssssscssssscsscsssssssssssscsssssscccccccssssscsssscsssssccccsssscsscssssssscssscsssssscsssscccccccsssscssccssscccssssssssssssssscsssssssssssssssssssssscssssssssscscsssssccsssssscscccccccccccccccccccccccccccsssccccccccccccccssscssscccccsssssssccccsssssssssssssssssscsssscscssccccsssccccccccccssssssssssssssssssssssssssssssssssssssssssssssssscsssssssssssssssssssssssssscsssssssscccssssscsssssccccccccccsssssscssssssscssccccccccccccccccccccsssssssssssssccsssssssssssssssssssssssscsssssssssssssssssssccssssscssssscccssssssssscccccccs" /></g></g></svg>
