<?xml version="1.0" encoding="UTF-8" standalone="no"?>
<!-- Created with Inkscape (http://www.inkscape.org/) -->

<svg
   width="115mm"
   height="115mm"
   viewBox="0 0 115 114.99999"
   version="1.1"
   id="svg1"
   xml:space="preserve"
   inkscape:version="1.4.2 (f4327f4, 2025-05-13)"
   sodipodi:docname="Nano Fassaden Dämmung Logo.svg"
   inkscape:export-filename="Nano Fassaden Dämmung Logo 0H 96.png"
   inkscape:export-xdpi="96"
   inkscape:export-ydpi="96"
   xmlns:inkscape="http://www.inkscape.org/namespaces/inkscape"
   xmlns:sodipodi="http://sodipodi.sourceforge.net/DTD/sodipodi-0.dtd"
   xmlns="http://www.w3.org/2000/svg"
   xmlns:svg="http://www.w3.org/2000/svg"><sodipodi:namedview
     id="namedview1"
     pagecolor="#ffffff"
     bordercolor="#000000"
     borderopacity="0.25"
     inkscape:showpageshadow="2"
     inkscape:pageopacity="0.0"
     inkscape:pagecheckerboard="0"
     inkscape:deskcolor="#d1d1d1"
     inkscape:document-units="mm"
     inkscape:zoom="0.68862935"
     inkscape:cx="8.71296"
     inkscape:cy="382.64416"
     inkscape:window-width="1920"
     inkscape:window-height="991"
     inkscape:window-x="-9"
     inkscape:window-y="-9"
     inkscape:window-maximized="1"
     inkscape:current-layer="layer1"
     inkscape:export-bgcolor="#ffffff00" /><defs
     id="defs1"><rect
       x="328.18817"
       y="681.92285"
       width="358.3056"
       height="346.20642"
       id="rect5" /></defs><g
     inkscape:label="Ebene 1"
     inkscape:groupmode="layer"
     id="layer1"
     transform="translate(-2.1166668,-1.3066798)"><path
       style="fill:#008eb7;fill-opacity:1;stroke-width:0.999998"
       d="m 45.125254,20.222221 c -0.874867,-0.267089 -2.282525,-1.252016 -2.133647,-1.492904 0.03849,-0.06224 0.0026,-0.09802 -0.07925,-0.07951 -0.217584,0.04907 -0.797301,-0.841212 -1.054657,-1.619636 -0.146788,-0.444004 -0.221817,-1.030968 -0.220147,-1.722253 0.0026,-0.941068 0.04496,-1.134937 0.416258,-1.889065 0.526755,-1.069993 1.273159,-1.814723 2.312098,-2.306912 0.751625,-0.356071 0.923569,-0.388754 2.045269,-0.388754 1.1217,0 1.293644,0.03269 2.045261,0.388754 1.04402,0.494594 1.847549,1.298122 2.342143,2.342144 0.356071,0.751617 0.388758,0.923565 0.388758,2.045264 0,1.078335 -0.03997,1.310049 -0.334817,1.939354 -0.649236,1.385823 -1.671836,2.298857 -3.024599,2.700533 -0.684372,0.20321 -2.160386,0.248532 -2.70264,0.08299 z"
       id="path29" /><path
       style="fill:#008eb7;fill-opacity:1;stroke-width:0.999998"
       d="m 60.436444,25.046925 c -1.425457,-0.399801 -2.591565,-1.384934 -3.226955,-2.726151 -0.363401,-0.767089 -0.388749,-0.908463 -0.388749,-2.16773 0,-1.242691 0.0279,-1.404086 0.360243,-2.081918 1.838217,-3.74939 7.140224,-3.802677 8.975029,-0.0902 0.441693,0.893713 0.461986,0.988811 0.461986,2.165766 0,1.129686 -0.0321,1.29878 -0.390053,2.054386 -0.363864,0.768088 -1.399908,2.054568 -1.654622,2.054568 -0.0621,0 -0.07365,-0.06362 -0.02554,-0.141388 0.05458,-0.0883 0.0335,-0.108116 -0.05598,-0.05277 -0.0789,0.04874 -0.111022,0.140983 -0.07146,0.204988 0.03954,0.06401 -0.278488,0.280347 -0.706773,0.480762 -0.983668,0.460314 -2.281291,0.578981 -3.277091,0.299688 z"
       id="path28" /><path
       style="fill:#008eb7;fill-opacity:1;stroke-width:0.999998"
       d="m 50.39049,29.659467 c -0.866383,-0.284115 -1.491163,-0.809459 -1.911628,-1.607385 -0.332219,-0.630454 -0.312766,-2.101302 0.03647,-2.755478 0.926656,-1.735938 3.128589,-2.185297 4.587817,-0.936256 2.050789,1.755401 0.963035,5.177887 -1.701452,5.353392 -0.387323,0.02551 -0.842355,10e-4 -1.011176,-0.05427 z"
       id="path27" /><path
       style="fill:#00ba86;fill-opacity:1;stroke-width:0.999998"
       d="m 67.25993,31.576128 c -0.281505,-0.163162 -0.554981,-0.462456 -0.704174,-0.770646 -0.274604,-0.567246 -0.301063,-0.872646 -0.117469,-1.355538 0.06954,-0.182932 3.467535,-3.645438 7.551085,-7.69446 L 81.414005,14.393626 80.62915,13.649731 C 80.197481,13.24059 79.505088,12.598215 79.090501,12.222232 l -0.753786,-0.683606 0.876258,-0.189421 c 0.481937,-0.104183 2.77753,-0.612232 5.101313,-1.128999 2.323792,-0.5167675 4.357035,-0.967385 4.518325,-1.0013723 0.257277,-0.054212 0.284943,-0.025812 0.2255,0.2314145 -0.03726,0.1612655 -0.526983,2.6213158 -1.088253,5.4667788 l -1.020492,5.17357 -1.60383,-1.600528 -1.603821,-1.600528 -7.214737,7.280729 c -3.968111,4.004401 -7.391106,7.370172 -7.60667,7.479489 -0.533954,0.270783 -1.110251,0.245227 -1.660378,-0.07363 z"
       id="path26" /><path
       style="fill:#008eb7;fill-opacity:1;stroke-width:0.999998"
       d="m 38.314039,32.59666 c -1.038178,-0.267132 -2.706322,-1.445188 -2.565622,-1.81186 0.03665,-0.09551 0.01688,-0.142899 -0.044,-0.105303 -0.158299,0.09784 -0.565101,-0.617097 -0.793409,-1.394368 -0.697369,-2.374278 0.538266,-4.905652 2.809377,-5.755383 0.821931,-0.307523 2.184955,-0.338366 3.065691,-0.06937 0.737735,0.225318 1.957076,1.061493 1.934859,1.326851 -0.0089,0.106485 0.04242,0.181993 0.114049,0.167795 0.219806,-0.04356 0.924269,1.25292 1.074809,1.97807 0.448489,2.160363 -0.597578,4.345668 -2.537283,5.300584 -0.647049,0.31854 -0.968903,0.397566 -1.735547,0.426139 -0.517659,0.0193 -1.112989,-0.0091 -1.322954,-0.06315 z"
       id="path25" /><path
       style="fill:#008fb7;fill-opacity:1;stroke-width:0.999998"
       d="M 58.718959,37.856083 C 57.576721,37.616627 56.589931,36.870409 56.048183,35.836427 55.775617,35.31621 55.7229,35.05712 55.720915,34.227942 c -0.0017,-0.860876 0.04531,-1.081611 0.367206,-1.711026 1.166169,-2.280268 4.223157,-2.648058 5.926446,-0.713019 1.340518,1.522909 1.083259,4.107577 -0.53021,5.327039 -0.796969,0.602353 -1.931746,0.899914 -2.765398,0.725147 z"
       id="path24" /><path
       style="fill:#00b987;fill-opacity:1;stroke-width:0.999998"
       d="m 38.573345,46.871301 c -1.421171,-0.362225 -2.635579,-1.329593 -3.289748,-2.620534 -1.133884,-2.237606 -0.266863,-5.174291 1.903091,-6.445969 2.406309,-1.410191 5.618027,-0.428158 6.861684,2.098067 0.50334,1.022432 0.619444,2.547629 0.276843,3.636847 -0.746019,2.371776 -3.426398,3.924302 -5.75187,3.331589 z"
       id="path23" /><path
       style="fill:#000000;stroke-width:0.999998"
       d="m 45.615124,35.598719 c 0,-0.02543 -0.09644,-0.121872 -0.214321,-0.214315 -0.194231,-0.152331 -0.198569,-0.148 -0.04627,0.04624 0.159987,0.203997 0.260557,0.268871 0.260557,0.168077 z"
       id="path22" /><path
       style="fill:#008eb7;fill-opacity:1;stroke-width:0.999998"
       d="m 66.676995,51.258943 c -0.0079,0.37067 -0.676657,1.083493 -1.278652,1.36382 -0.800345,0.372689 -2.088269,0.395055 -2.849525,0.04948 v 4e-6 C 61.855035,52.357303 45.40487,35.952307 45.019033,35.190589 c -0.925686,-1.827474 0.676552,-3.748358 2.686712,-3.221021 0.492066,0.129087 1.282851,0.881782 8.523277,8.11271 6.830983,6.822017 7.992629,8.032982 8.06235,8.404619 0.152307,0.811871 0.592251,1.454861 1.417524,2.071766"
       id="path30" /><path
       style="fill:#002966;fill-opacity:1;stroke-width:0.999998"
       d="M 66.968777,50.944496 C 66.81654,50.931454 66.645296,50.879079 66.32213,50.725795 65.73246,50.446102 64.786779,49.612663 64.552838,48.926066 64.344482,48.314588 64.432063,47.324426 64.747244,46.728104 64.85405,46.526035 72.280765,39.031133 81.251053,30.072767 90.221341,21.1144 98.160081,13.146354 98.8927,12.365999 l 1.33203,-1.418828 -2.07706,-1.918363 C 97.005292,7.9737089 96.095149,7.1104451 96.125133,7.1104451 c 0.03,0 1.945128,-0.4932702 4.255877,-1.0961572 2.31074,-0.6028862 5.79953,-1.5104837 7.75287,-2.0168819 1.95332,-0.5063982 3.73061,-0.9723864 3.94951,-1.0355292 0.21891,-0.063143 0.39805,-0.078633 0.39808,-0.034419 5e-5,0.044215 -0.27242,1.4581257 -0.60547,3.1420294 -0.33306,1.6839037 -0.91405,4.6598198 -1.29108,6.6131488 -0.37703,1.953329 -0.82851,4.280049 -1.00326,5.170492 l -0.31774,1.618987 -1.72844,-1.61353 c -0.95065,-0.887443 -1.99114,-1.862805 -2.3122,-2.167476 l -0.58374,-0.553945 -17.663645,17.651067 c -9.715012,9.708088 -17.854044,17.746387 -18.086752,17.862887 -0.232698,0.1165 -0.764404,0.239216 -1.181563,0.272701"
       id="path21" /><path
       style="fill:#00b986;fill-opacity:1;stroke-width:0.999998"
       d="m 48.483795,53.402921 c -0.832586,-0.330246 -1.514762,-0.93667 -1.946947,-1.730731 -0.288626,-0.530304 -0.366332,-0.8447 -0.408815,-1.65411 -0.04566,-0.870057 -0.01329,-1.084882 0.250184,-1.660392 0.413388,-0.902964 0.966629,-1.497857 1.748903,-1.880592 2.539574,-1.242496 5.459309,0.541234 5.476872,3.345935 0.009,1.444401 -0.733773,2.701274 -2.005542,3.393456 -0.868709,0.472811 -2.192844,0.552071 -3.114655,0.186434 z"
       id="path20" /><path
       style="fill:#008fb6;fill-opacity:1;stroke-width:0.999998"
       d="M 94.503713,57.652628 C 94.149838,57.2943 93.903057,56.95413 93.95531,56.89669 c 0.05222,-0.05747 0.03236,-0.06866 -0.04417,-0.02493 -0.168839,0.09645 -0.446767,-0.205627 -0.318977,-0.346695 0.04994,-0.0551 0.0293,-0.06516 -0.04592,-0.02222 -0.07522,0.04286 -0.240518,-0.04032 -0.36739,-0.184837 -0.215703,-0.245739 -0.21635,-0.257574 -0.01,-0.182212 0.121379,0.04435 0.193294,0.0363 0.159829,-0.01784 -0.0335,-0.05414 0.927978,-1.086136 2.136542,-2.293307 l 2.197393,-2.19485 -1.492046,-1.495643 -1.492056,-1.495642 4.137658,-0.0089 4.137667,-0.0089 -0.0732,0.706974 c -0.0627,0.60555 -0.37393,4.896435 -0.47098,6.493302 -0.0174,0.286159 -0.0602,0.520379 -0.095,0.520476 -0.0349,9.6e-5 -0.64033,-0.578694 -1.34544,-1.286218 l -1.282013,-1.286393 -2.269991,2.267629 -2.269991,2.267638 z"
       id="path19" /><path
       style="fill:#00b986;fill-opacity:1;stroke-width:0.999998"
       d="m 39.22147,58.251614 c -1.163816,-0.312766 -2.021032,-1.249044 -2.232441,-2.438357 -0.118151,-0.664648 0.129828,-1.698015 0.545019,-2.271163 0.819019,-1.130633 2.425158,-1.552776 3.688451,-0.969441 1.170621,0.540543 1.813052,1.45618 1.818151,2.591377 0.0044,0.891416 -0.227835,1.502525 -0.819876,2.161006 -0.780411,0.86801 -1.914068,1.21823 -2.999304,0.926578 z"
       id="path18" /><path
       style="fill:#00b986;fill-opacity:1;stroke-width:0.999998"
       d="m 72.237048,59.661651 c -1.683897,-0.433585 -2.817108,-1.777365 -2.955788,-3.50504 -0.128201,-1.597156 0.653671,-2.993445 2.085111,-3.723646 0.712195,-0.363297 0.938211,-0.418425 1.715552,-0.418425 1.5325,0 2.85751,0.831828 3.538733,2.221591 0.227135,0.463377 0.281531,0.776361 0.280788,1.615664 -8.4e-4,0.949582 -0.03744,1.108642 -0.416678,1.81195 -0.449128,0.832892 -1.018821,1.359516 -1.885361,1.742825 -0.622427,0.27533 -1.792882,0.401712 -2.362357,0.255081 z"
       id="path17" /><path
       style="fill:#00b786;fill-opacity:1;stroke-width:0.999998"
       d="M 48.737993,66.391487 C 47.403239,66.0677 46.701488,64.967105 46.984296,63.64109 c 0.108416,-0.508344 0.472989,-0.902061 5.191842,-5.60699 2.909046,-2.900456 5.292106,-5.177853 5.583355,-5.335792 1.362726,-0.738986 3.11225,0.160428 3.257761,1.674788 0.112588,1.171776 0.143097,1.133999 -5.313841,6.581263 -2.784195,2.779263 -5.214855,5.130511 -5.401467,5.224984 -0.45658,0.231151 -1.11654,0.320674 -1.563953,0.212144 z"
       id="path16" /><path
       style="fill:#00b886;fill-opacity:1;stroke-width:0.999998"
       d="m 78.15564,67.895158 c -0.72033,-0.249213 -1.599247,-1.003418 -1.956988,-1.679306 -0.205278,-0.387839 -0.268246,-0.719437 -0.270424,-1.424058 -0.0026,-0.8038 0.04461,-1.002596 0.377081,-1.592048 1.517596,-2.690535 5.388058,-2.251859 6.248563,0.708198 0.232314,0.799129 0.148205,1.547352 -0.26577,2.364307 -0.713052,1.407142 -2.606644,2.150799 -4.132462,1.622907 z"
       id="path15" /><path
       style="fill:#00b985;fill-opacity:1;stroke-width:0.999998"
       d="m 62.936719,69.336219 c -1.740672,-0.442174 -3.172366,-2.059762 -3.507629,-3.963046 -0.360541,-2.046826 0.852405,-4.293307 2.814668,-5.213027 0.620171,-0.290672 0.847333,-0.328213 1.98615,-0.328213 1.159942,0 1.354172,0.0335 1.982993,0.34233 0.864747,0.424646 1.814373,1.265742 2.230211,1.975323 0.828089,1.413019 0.88196,3.279225 0.136274,4.720567 -0.39363,0.760844 -1.485976,1.785543 -2.302879,2.160254 -0.633273,0.290488 -0.945339,0.353299 -1.862899,0.374964 -0.606203,0.01434 -1.270807,-0.01679 -1.476889,-0.06919 z"
       id="path14" /><path
       style="fill:#00b986;fill-opacity:1;stroke-width:0.999998"
       d="m 39.025876,73.233753 c -2.29331,-0.451569 -3.993144,-2.870499 -3.581592,-5.096765 0.185457,-1.003235 0.571643,-1.71934 1.347454,-2.498631 0.918522,-0.922624 1.767507,-1.257231 3.189956,-1.257231 1.836038,0 3.185592,0.797266 4.050837,2.393075 0.401546,0.740578 0.419162,0.827136 0.419162,2.058967 0,1.179061 -0.02983,1.344698 -0.358695,1.993812 -0.632784,1.248834 -1.84008,2.146802 -3.244423,2.413123 -0.746526,0.141583 -1.077284,0.140429 -1.822699,-0.0061 z"
       id="path13" /><path
       style="fill:#00b986;fill-opacity:1;stroke-width:0.999998"
       d="m 54.400139,77.891466 c -1.15744,-0.290086 -2.154464,-1.0977 -2.749304,-2.226966 -0.306959,-0.582743 -0.340879,-0.768979 -0.340966,-1.871786 -8.7e-5,-1.162977 0.02108,-1.263722 0.420456,-2.000338 0.463989,-0.855799 1.120598,-1.462823 2.038526,-1.884583 0.467706,-0.214899 0.823148,-0.276738 1.588112,-0.276292 0.864231,4.98e-4 1.085296,0.04968 1.795891,0.399499 0.952503,0.468922 1.467223,1.012357 1.96368,2.073276 0.330294,0.705819 0.35775,0.864853 0.318101,1.842791 -0.05099,1.258675 -0.329586,1.939994 -1.129835,2.763387 -0.964486,0.992388 -2.637844,1.49851 -3.904661,1.181012 z"
       id="path12" /><path
       style="fill:#00b986;fill-opacity:1;stroke-width:0.999998"
       d="m 85.285359,78.469608 c -2.289776,-0.645833 -3.860395,-3.122038 -3.437166,-5.418986 0.353351,-1.917698 1.636919,-3.374303 3.437437,-3.900796 1.964887,-0.574565 4.293621,0.244 5.434477,1.910255 0.655717,0.95769 0.851014,1.593893 0.862324,2.809062 0.0091,0.980842 -0.02248,1.121534 -0.44318,1.97275 -0.54731,1.107408 -1.262427,1.805066 -2.392078,2.333702 -0.677768,0.317166 -0.992502,0.387735 -1.858981,0.416844 -0.593345,0.01994 -1.284425,-0.03306 -1.602833,-0.122831 z"
       id="path11" /><path
       style="fill:#00b986;fill-opacity:1;stroke-width:0.999998"
       d="M 105.56209,78.021897 C 104.0129,77.62867 101.1561,76.907684 99.213645,76.41972 L 95.681909,75.532512 97.161605,74.049256 98.641301,72.566 89.028013,62.953464 C 83.740709,57.666579 79.33227,53.16728 79.231499,52.955032 78.919555,52.298054 78.992643,51.331371 79.401894,50.701284 79.70266,50.238225 91.845288,38.058892 98.930819,31.113331 l 2.186261,-2.14307 -1.673877,-1.611849 C 98.11766,26.081988 97.815617,25.73243 97.991741,25.678651 99.150082,25.32496 110.81951,22.18522 110.85264,22.218339 c 0.0241,0.02403 -0.23173,1.27749 -0.56834,2.785474 -0.88717,3.974418 -2.18365,9.922865 -2.23164,10.239113 -0.0353,0.232308 -0.30265,0.02273 -1.83856,-1.440981 l -1.7973,-1.712824 -9.948677,9.942836 -9.948673,9.942836 1.275162,1.225883 c 0.701332,0.674235 4.618869,4.54507 8.705629,8.601856 l 7.430479,7.375966 1.38835,-1.402576 1.38835,-1.402576 1.76247,5.669135 c 0.96934,3.118023 1.8341,5.903346 1.92167,6.189609 0.0876,0.286264 0.12053,0.516951 0.0732,0.51263 -0.0473,-0.0044 -1.3535,-0.329587 -2.9027,-0.722823 z"
       id="path10" /><path
       style="fill:#00b886;fill-opacity:1;stroke-width:0.999998"
       d="m 70.720599,79.502687 c -0.890656,-0.286194 -1.563998,-0.725228 -2.172456,-1.416466 -1.304525,-1.482023 -1.592188,-3.487145 -0.756515,-5.273231 0.384428,-0.821643 1.41664,-1.834411 2.283784,-2.240759 0.633483,-0.296847 0.845496,-0.331021 2.053535,-0.331021 1.141705,0 1.439015,0.04234 1.949703,0.277885 3.029786,1.397258 3.832615,5.223566 1.597375,7.613221 -1.310219,1.40073 -3.218611,1.928474 -4.955426,1.370371 z"
       id="path9" /><path
       style="fill:#00b986;fill-opacity:1;stroke-width:0.999998"
       d="m 44.461332,85.353071 c -1.369653,-0.471021 -2.167199,-1.196004 -2.815281,-2.559132 -0.338053,-0.711032 -0.377894,-0.913703 -0.373153,-1.898219 0.0044,-0.854304 0.06884,-1.262698 0.287907,-1.815869 0.369454,-0.93305 1.446074,-2.046223 2.420567,-2.50275 0.637253,-0.298536 0.855694,-0.335071 2.003057,-0.335071 1.207226,0 1.338795,0.0251 2.102946,0.40096 2.025851,0.996517 3.053621,3.224165 2.49968,5.417989 -0.66463,2.63222 -3.544322,4.179826 -6.125723,3.292092 z"
       id="path8" /><path
       style="fill:#00b985;fill-opacity:1;stroke-width:0.999998"
       d="m 93.587098,86.299408 c -0.72577,-0.270677 -1.244557,-0.680847 -1.694061,-1.339381 -0.396893,-0.581449 -0.4145,-0.655052 -0.4145,-1.732529 0,-1.0383 0.02869,-1.171898 0.370958,-1.728524 0.440723,-0.716673 1.278259,-1.315117 2.124752,-1.518182 1.269809,-0.304622 2.78325,0.350605 3.500098,1.515331 0.302305,0.491173 0.377711,0.762253 0.414456,1.489991 0.02475,0.489275 -0.01872,1.082418 -0.0965,1.318108 -0.191449,0.580085 -1.026579,1.504301 -1.644362,1.819761 -0.640883,0.32726 -1.918949,0.414815 -2.560838,0.175425 z"
       id="path7" /><path
       style="fill:#00b986;fill-opacity:1;stroke-width:0.999998"
       d="m 61.206761,86.615323 c -1.373519,-0.490745 -2.16531,-1.325727 -2.568473,-2.708588 -0.490448,-1.682244 0.369882,-3.576283 1.982922,-4.365475 1.877481,-0.918566 4.092822,-0.196566 5.045876,1.644493 0.343424,0.663406 0.399814,0.897285 0.399814,1.658305 0,1.180592 -0.264151,1.899094 -0.990254,2.693569 -1.02539,1.121928 -2.554356,1.54772 -3.869885,1.077696 z"
       id="path6" /><path
       style="fill:#00b986;fill-opacity:1;stroke-width:0.999998"
       d="m 79.844287,86.849648 c -1.034845,-0.266697 -1.962263,-1.035956 -2.358998,-1.9567 -0.106448,-0.247025 -0.194265,-0.801062 -0.19702,-1.242842 -0.01714,-2.764148 3.126848,-4.286012 5.302164,-2.566524 1.931326,1.526623 1.570278,4.525987 -0.664228,5.518105 -0.587545,0.260863 -1.575341,0.378515 -2.081918,0.247961 z"
       id="path5" /><text
       class="text"
       x="6.1178923"
       y="26.801107"
       font-size="31.5159px"
       id="text1"
       style="stroke-width:0.264584">N</text><text
       class="text"
       x="6.0871148"
       y="56.463108"
       font-size="31.5159px"
       id="text2"
       style="stroke-width:0.264584">A</text><text
       class="text"
       x="6.1178923"
       y="84.889191"
       font-size="31.5159px"
       id="text3"
       style="stroke-width:0.264584">N</text><text
       class="text"
       x="4.8531814"
       y="113.93323"
       font-size="32.1338px"
       id="text4"
       style="stroke-width:0.264584">O</text><text
       class="text"
       x="32.07214"
       y="101.57407"
       font-size="14.3366px"
       id="text28"
       style="stroke-width:0.264584;font-weight:800">FASSADEN-</text><text
       class="text"
       x="32.07214"
       y="114.55119"
       font-size="13.1007px"
       id="text29"
       style="stroke-width:0.264584">DÄMMUNG</text><text
       xml:space="preserve"
       transform="matrix(0.26458333,0,0,0.26458333,-52.03935,-182.44882)"
       id="text5"
       style="font-weight:bold;font-size:20px;line-height:normal;font-family:'Century Gothic';-inkscape-font-specification:'Century Gothic Bold';text-align:center;text-decoration-color:#000000;letter-spacing:0px;writing-mode:lr-tb;direction:ltr;white-space:pre;shape-inside:url(#rect5);display:inline;fill:#4f58ca;fill-opacity:0.992157;stroke:#181fff;stroke-width:3.77953;stroke-linecap:square" /></g><style
     id="style1">
.text{font-family:Arial,Helvetica,sans-serif;font-weight:400;fill:#0b2f78}
.blue{stroke:#0b2f78;fill:none;stroke-width:34;stroke-linecap:round;stroke-linejoin:round}
.green{stroke:#11c48d;fill:none;stroke-width:28;stroke-linecap:round;stroke-linejoin:round}
.c1{fill:#1496cf}.c2{fill:#11c48d}
</style></svg>
